<svg width="33" height="32" viewBox="0 0 33 32" fill="none" xmlns="http://www.w3.org/2000/svg">
<path d="M0.30188 25.6262H3.86303L5.29158 21.2336H11.9037L13.3322 25.6262H16.8934L10.1384 6.35047H7.06705L0.30188 25.6262ZM6.42421 17.9159L8.59763 11.4556L10.7813 17.9159H6.42421Z" fill="#015599"/>
<path d="M26.9653 26C28.0197 26 29.0128 25.8287 29.9448 25.486C30.8767 25.1355 31.6624 24.6994 32.3019 24.1776L30.8733 20.965C30.4176 21.3777 29.8597 21.7009 29.1999 21.9346C28.5469 22.1682 27.8666 22.285 27.1591 22.285C26.0503 22.285 25.0537 22.0086 24.1694 21.4556C23.285 20.9026 22.5878 20.1511 22.0776 19.2009C21.5674 18.2508 21.3123 17.1838 21.3123 16C21.3123 14.8162 21.5674 13.7492 22.0776 12.7991C22.5878 11.8489 23.285 11.0974 24.1694 10.5444C25.0537 9.99143 26.0503 9.71495 27.1591 9.71495C27.8666 9.71495 28.5469 9.83177 29.1999 10.0654C29.8597 10.2991 30.4176 10.6223 30.8733 11.035L32.3019 7.82243C31.642 7.27726 30.8427 6.83723 29.904 6.50234C28.9652 6.16745 27.9788 6 26.9448 6C25.6796 6 24.4891 6.25701 23.3735 6.77103C22.2647 7.28505 21.2851 8.00156 20.4348 8.92056C19.5912 9.83177 18.928 10.8949 18.445 12.1098C17.9688 13.317 17.7307 14.6176 17.7307 16.0117C17.7307 17.398 17.9688 18.6947 18.445 19.9019C18.928 21.109 19.5912 22.1721 20.4348 23.0911C21.2851 24.0023 22.2681 24.7149 23.3837 25.229C24.4993 25.743 25.6932 26 26.9653 26Z" fill="#015599"/>
</svg>
