<svg width="33" height="32" viewBox="0 0 33 32" fill="none" xmlns="http://www.w3.org/2000/svg">
<path d="M17.1941 6C18.0509 6.13672 18.9441 6.5013 19.8738 7.09375C20.0378 7.20312 20.1928 7.25781 20.3386 7.25781C20.4936 7.25781 20.6394 7.17578 20.7761 7.01172C20.9128 6.83854 21.0632 6.64258 21.2273 6.42383H22.4578V13.0547H21.4187C21.1635 12.7812 20.8901 12.3255 20.5984 11.6875C20.3067 11.0404 20.0652 10.5299 19.8738 10.1562C19.6915 9.77344 19.4773 9.41797 19.2312 9.08984C18.6752 8.36068 17.9962 7.91406 17.1941 7.75V6ZM11.9578 25.0176C11.6205 25.0176 11.338 25.291 11.1101 25.8379H9.72925V18.6875H10.6453C10.9825 18.8971 11.297 19.3483 11.5886 20.041C11.8894 20.7246 12.1446 21.2852 12.3542 21.7227C12.573 22.151 12.8373 22.5521 13.1472 22.9258C13.8673 23.7826 14.8106 24.2656 15.9773 24.375V26.125C15.1296 26.0703 14.3959 25.9245 13.7761 25.6875C13.1563 25.4414 12.7325 25.2682 12.5046 25.168C12.2768 25.0677 12.0945 25.0176 11.9578 25.0176ZM17.1941 24.375C18.0782 24.2747 18.7709 23.9831 19.2722 23.5C19.7826 23.0078 20.0378 22.4017 20.0378 21.6816C20.0378 20.9616 19.8875 20.3919 19.5867 19.9727C19.295 19.5534 18.9076 19.1842 18.4246 18.8652C17.9415 18.5462 17.3901 18.2591 16.7703 18.0039C16.1505 17.7487 15.517 17.4889 14.8699 17.2246C14.2227 16.9603 13.5893 16.6777 12.9695 16.377C12.3497 16.0671 11.7983 15.7025 11.3152 15.2832C10.2397 14.3535 9.7019 13.1732 9.7019 11.7422C9.7019 10.2747 10.2397 8.98503 11.3152 7.87305C12.5183 6.64258 14.0723 6.01823 15.9773 6V7.75C15.239 7.82292 14.642 8.0599 14.1863 8.46094C13.7397 8.86198 13.5164 9.35417 13.5164 9.9375C13.5164 10.5208 13.6622 11.0039 13.9539 11.3867C14.2546 11.7695 14.6466 12.1113 15.1296 12.4121C15.6127 12.7038 16.1641 12.9727 16.7839 13.2188C17.4037 13.4557 18.0326 13.7064 18.6707 13.9707C19.3178 14.2259 19.9513 14.513 20.571 14.832C21.1908 15.1419 21.7423 15.5156 22.2253 15.9531C23.3009 16.9284 23.8386 18.1543 23.8386 19.6309C23.8386 21.3626 23.2917 22.8164 22.198 23.9922C20.9858 25.3138 19.3178 26.0247 17.1941 26.125V24.375Z" fill="black"/>
</svg>
